<svg xmlns="http://www.w3.org/2000/svg" width="20.979" height="13.717" viewBox="0 0 20.979 13.717">
  <g id="iconfinder_eye1_6351969" transform="translate(-1 -5.5)">
    <path id="Path_80" data-name="Path 80" d="M16.368,14.411a3.542,3.542,0,0,0,.306-1.163,3.426,3.426,0,0,0-3.351-3.5,3.426,3.426,0,0,0-3.35,3.5,3.323,3.323,0,0,0,5.988,1.858A3.529,3.529,0,0,0,16.368,14.411Zm-3.045.287a1.631,1.631,0,0,0,1.1-.426,1.59,1.59,0,0,0,.511-1.023A1.658,1.658,0,0,0,13.324,11.5a1.718,1.718,0,0,0-1.683,1.747A1.683,1.683,0,0,0,13.324,14.7Z" transform="translate(-1.798 -0.883)" fill="#8596ab" fill-rule="evenodd"/>
    <path id="Path_81" data-name="Path 81" d="M1.074,12.578h0a.362.362,0,0,1,0-.44l.022-.032C4.051,7.794,7.714,5.5,11.5,5.5s7.443,2.288,10.394,6.592a.451.451,0,0,1,.084.266.477.477,0,0,1-.092.28c-2.95,4.3-6.607,6.579-10.386,6.579C7.7,19.217,4.032,16.912,1.074,12.578Zm2.3-.742a.839.839,0,0,0,0,1.044C5.9,16.025,8.749,17.5,11.5,17.5s5.6-1.477,8.129-4.622a.839.839,0,0,0,0-1.044C17.1,8.691,14.252,7.215,11.5,7.215S5.9,8.691,3.371,11.836Z" transform="translate(0 0)" fill="#8596ab" fill-rule="evenodd"/>
  </g>
</svg>
